<svg width="32" height="32" viewBox="0 0 32 32" fill="none" xmlns="http://www.w3.org/2000/svg">
<g id="Group 73">
<rect id="Social Media Icon" x="0.216187" width="31.6081" height="31.6081" rx="15.804" fill="#0A66C2"/>
<path id="LinkedIn" d="M8.11829 10.0267C8.11829 9.51993 8.29626 9.10183 8.65221 8.77243C9.00815 8.44302 9.47089 8.27832 10.0404 8.27832C10.5998 8.27832 11.0523 8.44048 11.3981 8.76483C11.754 9.09931 11.932 9.53513 11.932 10.0723C11.932 10.5588 11.7591 10.9643 11.4133 11.2886C11.0574 11.6231 10.5896 11.7903 10.0099 11.7903H9.99464C9.43528 11.7903 8.98273 11.6231 8.63695 11.2886C8.29117 10.9541 8.11829 10.5335 8.11829 10.0267ZM8.3166 23.3298V13.1738H11.7032V23.3298H8.3166ZM13.5795 23.3298H16.9661V17.6589C16.9661 17.3041 17.0068 17.0305 17.0882 16.8379C17.2305 16.4933 17.4466 16.2019 17.7365 15.9637C18.0263 15.7255 18.3899 15.6064 18.8272 15.6064C19.9662 15.6064 20.5358 16.3716 20.5358 17.9021V23.3298H23.9223V17.5068C23.9223 16.0068 23.5664 14.869 22.8545 14.0937C22.1426 13.3183 21.2019 12.9306 20.0323 12.9306C18.7204 12.9306 17.6983 13.4931 16.9661 14.6182V14.6486H16.9509L16.9661 14.6182V13.1738H13.5795C13.5999 13.4982 13.61 14.5067 13.61 16.1993C13.61 17.892 13.5999 20.2688 13.5795 23.3298Z" fill="#EFEFEF"/>
</g>
</svg>
