<svg width="33" height="32" viewBox="0 0 33 32" fill="none" xmlns="http://www.w3.org/2000/svg">
<rect x="0.608093" width="31.6081" height="31.6081" rx="15.804" fill="url(#paint0_radial_404_194)"/>
<path fill-rule="evenodd" clip-rule="evenodd" d="M8.51025 15.8041C8.51025 12.6476 8.51025 11.0693 9.26243 9.93253C9.59832 9.4249 10.0331 8.99016 10.5407 8.65428C11.6775 7.9021 13.2557 7.9021 16.4123 7.9021C19.5688 7.9021 21.1471 7.9021 22.2839 8.65428C22.7915 8.99016 23.2262 9.4249 23.5621 9.93253C24.3143 11.0693 24.3143 12.6476 24.3143 15.8041C24.3143 18.9607 24.3143 20.5389 23.5621 21.6757C23.2262 22.1833 22.7915 22.6181 22.2839 22.954C21.1471 23.7061 19.5688 23.7061 16.4123 23.7061C13.2557 23.7061 11.6775 23.7061 10.5407 22.954C10.0331 22.6181 9.59832 22.1833 9.26243 21.6757C8.51025 20.5389 8.51025 18.9607 8.51025 15.8041ZM20.503 15.8044C20.503 18.0638 18.6714 19.8954 16.412 19.8954C14.1526 19.8954 12.321 18.0638 12.321 15.8044C12.321 13.545 14.1526 11.7135 16.412 11.7135C18.6714 11.7135 20.503 13.545 20.503 15.8044ZM16.412 18.5113C17.907 18.5113 19.1189 17.2994 19.1189 15.8044C19.1189 14.3095 17.907 13.0975 16.412 13.0975C14.917 13.0975 13.7051 14.3095 13.7051 15.8044C13.7051 17.2994 14.917 18.5113 16.412 18.5113ZM20.6647 12.469C21.1956 12.469 21.626 12.0386 21.626 11.5078C21.626 10.9769 21.1956 10.5465 20.6647 10.5465C20.1338 10.5465 19.7034 10.9769 19.7034 11.5078C19.7034 12.0386 20.1338 12.469 20.6647 12.469Z" fill="#EFEFEF"/>
<defs>
<radialGradient id="paint0_radial_404_194" cx="0" cy="0" r="1" gradientUnits="userSpaceOnUse" gradientTransform="translate(9.00403 34.0426) rotate(-90) scale(31.326 29.1356)">
<stop stop-color="#FFDD55"/>
<stop offset="0.1" stop-color="#FFDD55"/>
<stop offset="0.5" stop-color="#FF543E"/>
<stop offset="1" stop-color="#C837AB"/>
</radialGradient>
</defs>
</svg>
