<svg width="32" height="32" viewBox="0 0 32 32" fill="none" xmlns="http://www.w3.org/2000/svg">
<g id="Group 73">
<rect id="Social Media Icon" x="0.257324" y="0.391846" width="31.6081" height="31.6081" rx="15.804" fill="#0A66C2"/>
<path id="LinkedIn" d="M8.15942 10.4186C8.15942 9.91178 8.3374 9.49368 8.69334 9.16428C9.04929 8.83487 9.51203 8.67017 10.0815 8.67017C10.6409 8.67017 11.0934 8.83233 11.4392 9.15668C11.7952 9.49116 11.9731 9.92698 11.9731 10.4642C11.9731 10.9507 11.8003 11.3561 11.4545 11.6805C11.0985 12.0149 10.6307 12.1822 10.051 12.1822H10.0358C9.47642 12.1822 9.02387 12.0149 8.67809 11.6805C8.33231 11.346 8.15942 10.9253 8.15942 10.4186ZM8.35774 23.7216V13.5657H11.7443V23.7216H8.35774ZM13.6207 23.7216H17.0072V18.0507C17.0072 17.696 17.0479 17.4223 17.1293 17.2297C17.2717 16.8851 17.4878 16.5937 17.7776 16.3555C18.0675 16.1173 18.431 15.9983 18.8683 15.9983C20.0074 15.9983 20.5769 16.7635 20.5769 18.294V23.7216H23.9635V17.8987C23.9635 16.3986 23.6075 15.2609 22.8956 14.4855C22.1837 13.7101 21.243 13.3224 20.0735 13.3224C18.7616 13.3224 17.7395 13.885 17.0072 15.01V15.0404H16.992L17.0072 15.01V13.5657H13.6207C13.641 13.89 13.6512 14.8985 13.6512 16.5912C13.6512 18.2838 13.641 20.6607 13.6207 23.7216Z" fill="#EFEFEF"/>
</g>
</svg>
